<?xml version="1.0" standalone="no"?>
<!DOCTYPE svg PUBLIC "-//W3C//DTD SVG 20010904//EN"
 "http://www.w3.org/TR/2001/REC-SVG-20010904/DTD/svg10.dtd">
<svg version="1.0" xmlns="http://www.w3.org/2000/svg"
 width="360.000000pt" height="360.000000pt" viewBox="0 0 360.000000 360.000000"
 preserveAspectRatio="xMidYMid meet">
<metadata>
Created by potrace 1.14, written by Peter Selinger 2001-2017
</metadata>
<g transform="translate(0.000000,360.000000) scale(0.100000,-0.100000)"
fill="#000000" stroke="none">
<path d="M1726 3417 c-38 -50 -56 -100 -56 -159 0 -75 12 -110 66 -188 62 -92
68 -141 26 -221 l-29 -56 111 -6 c61 -4 121 -9 134 -13 55 -16 76 158 30 257
-28 62 -87 127 -160 176 -77 53 -97 107 -76 217 5 32 -19 29 -46 -7z"/>
<path d="M2541 3236 c-55 -20 -112 -75 -139 -135 -23 -50 -25 -67 -23 -163 2
-139 -15 -175 -112 -226 l-38 -20 48 -27 c27 -15 79 -50 116 -78 l68 -50 45
44 c68 67 89 117 89 219 -1 77 -4 93 -38 166 -20 45 -37 96 -37 113 0 44 26
102 57 127 15 12 23 26 19 32 -9 14 -11 14 -55 -2z"/>
<path d="M929 3168 c-25 -91 28 -211 119 -269 25 -16 51 -29 57 -29 6 0 31
-13 56 -29 55 -35 80 -82 80 -156 1 -30 2 -55 4 -55 1 0 32 17 68 38 36 21 90
47 122 57 l56 20 -6 35 c-12 66 -55 139 -107 180 -56 45 -156 80 -227 80 -86
0 -165 57 -180 130 -10 49 -28 48 -42 -2z"/>
<path d="M3047 2666 c-62 -23 -116 -64 -148 -113 -16 -26 -29 -52 -29 -58 0
-6 -13 -31 -29 -56 -35 -57 -81 -79 -160 -80 -34 -1 -61 -3 -61 -5 0 -3 12
-23 27 -47 15 -23 42 -76 60 -117 l33 -75 37 3 c58 4 139 48 179 97 46 57 73
129 84 228 13 113 53 170 130 186 47 9 48 28 3 40 -49 14 -79 13 -126 -3z"/>
<path d="M1678 2659 c-208 -30 -379 -118 -520 -268 -171 -182 -246 -386 -235
-640 7 -152 23 -215 88 -346 109 -221 279 -367 519 -447 90 -30 104 -32 250
-32 178 -1 242 12 378 75 379 176 578 587 482 997 -66 278 -285 523 -554 619
-113 40 -294 59 -408 42z"/>
<path d="M356 2592 c-11 -18 19 -85 56 -126 22 -26 59 -53 90 -66 46 -20 68
-23 164 -21 100 1 113 -1 144 -21 30 -21 67 -65 84 -101 5 -9 7 -9 12 0 9 19
100 154 126 186 l23 29 -53 49 c-104 96 -224 103 -394 24 -29 -14 -70 -25 -91
-25 -44 0 -107 30 -125 59 -13 22 -27 27 -36 13z"/>
<path d="M633 2030 c-86 -17 -164 -74 -223 -160 -56 -82 -91 -105 -160 -104
-30 0 -65 4 -78 8 -35 13 -28 -18 11 -48 50 -38 101 -56 159 -56 75 0 110 12
188 66 87 59 142 68 211 32 l46 -24 8 101 c14 182 17 168 -40 181 -59 14 -67
14 -122 4z"/>
<path d="M3167 1920 c-15 -5 -59 -30 -97 -56 -92 -62 -141 -68 -221 -26 l-56
29 -6 -116 c-3 -64 -8 -124 -12 -134 -10 -25 54 -49 136 -50 55 -1 77 4 132
31 66 33 106 71 164 155 53 77 129 102 221 72 16 -5 22 -3 22 8 0 19 -52 61
-103 82 -39 16 -134 19 -180 5z"/>
<path d="M790 1476 c-64 -17 -115 -50 -155 -104 -41 -52 -75 -154 -75 -221 0
-86 -57 -165 -130 -180 -49 -10 -48 -28 2 -42 58 -16 134 0 192 40 52 36 72
62 115 153 40 84 74 111 153 116 32 3 58 6 58 7 0 2 -19 41 -43 87 -24 46 -50
99 -58 119 l-14 37 -45 -12z"/>
<path d="M2667 1314 c-14 -27 -46 -77 -71 -112 -25 -34 -46 -66 -46 -71 0 -21
101 -98 150 -114 90 -29 170 -19 292 38 29 14 68 25 86 25 45 0 103 -26 129
-58 30 -37 47 -20 31 32 -17 55 -79 119 -140 146 -46 20 -68 23 -164 21 -100
-1 -113 1 -145 22 -19 12 -48 44 -66 71 l-31 48 -25 -48z"/>
<path d="M1076 999 c-88 -98 -98 -220 -31 -368 19 -43 35 -92 35 -110 0 -44
-28 -107 -56 -126 -33 -21 -33 -49 1 -41 81 20 142 73 175 149 20 45 23 67 21
159 -2 135 15 171 104 224 16 9 11 15 -43 48 -34 21 -84 55 -111 76 l-50 39
-45 -50z"/>
<path d="M2275 919 c-38 -21 -92 -46 -118 -56 -45 -16 -47 -19 -42 -48 13 -64
57 -136 107 -175 56 -45 156 -80 227 -80 86 0 165 -57 180 -130 10 -49 28 -48
41 1 16 57 6 113 -30 176 -34 59 -73 92 -144 122 -101 44 -135 89 -137 180 -1
28 -4 51 -8 50 -3 0 -37 -18 -76 -40z"/>
<path d="M1579 782 c-6 -15 -12 -56 -12 -92 -1 -111 49 -196 164 -280 44 -32
76 -64 89 -90 22 -43 26 -100 9 -132 -16 -31 5 -47 31 -23 37 34 70 115 70
175 0 77 -12 111 -66 190 -59 86 -67 135 -33 206 13 27 24 51 26 54 2 3 -30 5
-69 5 -40 0 -101 3 -136 7 -62 8 -63 7 -73 -20z"/>
</g>
</svg>
